<?xml version="1.0" encoding="utf-8"?>
<!-- Generator: Adobe Illustrator 24.1.1, SVG Export Plug-In . SVG Version: 6.00 Build 0)  -->
<svg version="1.1" id="Layer_1" xmlns="http://www.w3.org/2000/svg" xmlns:xlink="http://www.w3.org/1999/xlink" x="0px" y="0px"
	 viewBox="0 0 189.18 258.31" style="enable-background:new 0 0 189.18 258.31;" xml:space="preserve">
<style type="text/css">
	.st0{fill-rule:evenodd;clip-rule:evenodd;fill:#FF69B4;}
	.st1{fill-rule:evenodd;clip-rule:evenodd;fill:#FFFFFF;}
</style>
<g>
	<path class="st0" d="M62.25,112.64c-0.97,2.94-4.13,4.53-7.07,3.57c-2.94-0.97-4.53-4.13-3.57-7.07c1.09-3.28,2.42-6.37,3.97-9.26
		c6.33-11.79,16.09-19.74,26.99-23.84c10.9-4.1,22.93-4.35,33.81-0.75c2.64,0.87,5.23,1.99,7.76,3.34
		c12.42,6.67,20.2,17.22,23.78,29.04c2.86,9.44,3.03,19.64,0.73,29.28c-2.3,9.65-7.08,18.8-14.1,26.12
		c-8.97,9.35-21.56,15.67-37.25,16.15c-3.08,0.08-5.65-2.34-5.73-5.43c-0.08-3.08,2.34-5.65,5.43-5.73
		c12.47-0.39,22.44-5.36,29.51-12.74c5.58-5.82,9.4-13.17,11.26-20.96c1.86-7.81,1.76-15.99-0.51-23.46
		c-2.76-9.12-8.78-17.26-18.4-22.43c-1.89-1.02-3.89-1.87-5.96-2.56c-8.49-2.81-17.88-2.62-26.37,0.57
		c-8.49,3.2-16.11,9.42-21.09,18.68C64.22,107.45,63.15,109.93,62.25,112.64L62.25,112.64z"/>
	<path class="st1" d="M65.57,158.94c-8.15-3.67-13.97-9.2-17.73-15.69c-3.67-6.34-5.42-13.65-5.48-21.1
		c-0.06-7.61,1.63-15.37,4.83-22.48c4.14-9.19,10.8-17.19,19.45-22.19c2.67-1.55,3.58-4.96,2.03-7.63
		c-1.55-2.67-4.96-3.58-7.63-2.03C50.28,74.03,42.05,83.86,37,95.08c-3.84,8.52-5.87,17.89-5.79,27.11
		c0.07,9.37,2.3,18.59,6.96,26.66c4.88,8.44,12.38,15.58,22.81,20.28c2.81,1.27,6.13,0.01,7.39-2.8
		C69.64,163.52,68.38,160.21,65.57,158.94L65.57,158.94z"/>
	<path class="st0" d="M97.08,55.55c-2.46,1.86-5.97,1.37-7.83-1.09s-1.37-5.97,1.09-7.83c3.67-2.77,6.72-7.31,8.01-12.33
		c0.62-2.44,0.81-4.93,0.43-7.32c-0.37-2.32-1.29-4.61-2.89-6.72c-1.96-2.6-4.97-4.96-9.27-6.86l0.03,50.01
		c0,3.08-2.5,5.58-5.58,5.58c-3.08,0-5.58-2.5-5.58-5.58L75.46,6.08c-0.05-0.61-0.01-1.23,0.15-1.86c0.76-3,3.81-4.81,6.8-4.05
		c10.9,2.78,18.07,7.6,22.4,13.34c2.75,3.64,4.34,7.63,4.99,11.71c0.64,4.01,0.36,8.03-0.61,11.83
		C107.3,44.51,102.67,51.33,97.08,55.55L97.08,55.55z"/>
	<path class="st0" d="M75.52,102.8l0.03,52.34c0.4,10.63-2.46,17.97-7.13,22.28c-2.93,2.7-6.64,4.28-10.73,4.77
		c-4.36,0.53-9.15-0.15-13.94-1.97c-10.94-4.16-21.67-14.18-27.44-29.52c-5.55-14.74-6.57-30.7-3.19-45.59
		c3.27-14.39,10.67-27.79,22.09-38.08c3.72-3.35,7.76-6.32,12.12-8.9c4.41-2.61,9.14-4.84,14.18-6.68c2.9-1.05,4.4-4.25,3.35-7.15
		c-1.05-2.9-4.25-4.4-7.15-3.35c-5.74,2.09-11.1,4.61-16.06,7.55c-5.02,2.97-9.66,6.38-13.91,10.22
		C14.53,70.62,5.98,86.07,2.21,102.68c-3.86,16.98-2.69,35.18,3.63,51.98c7,18.6,20.28,30.85,33.92,36.04
		c6.49,2.47,13.1,3.37,19.23,2.63c6.4-0.77,12.27-3.3,16.99-7.66c6.96-6.43,11.26-16.68,10.72-30.9l-0.03-51.95
		c0-3.08-2.5-5.58-5.58-5.58C78.01,97.22,75.52,99.72,75.52,102.8L75.52,102.8z"/>
	<path class="st1" d="M121.38,49.47c1.16,0.32,2.2,0.64,3.13,0.94c1.14,0.37,2.18,0.72,3.11,1.05c5.11,1.84,9.88,4.07,14.31,6.68
		c4.35,2.56,8.4,5.53,12.14,8.9c3.71,3.34,7.02,7.01,9.93,10.98c2.92,3.99,5.45,8.31,7.6,12.98c2.13,4.63,3.73,9.51,4.79,14.65
		c1.06,5.16,1.6,10.67,1.6,16.53c0,4.19-0.18,8.1-0.55,11.71c-0.37,3.7-0.93,7.2-1.66,10.5c-0.73,3.29-1.61,6.58-2.63,9.86
		c-1.01,3.25-2.12,6.34-3.32,9.27c-1.22,2.98-2.57,5.92-4.04,8.83c-1.49,2.95-3.04,5.76-4.66,8.41l-0.01-0.01
		c-2.06,3.38-3.84,6.3-5.33,8.7c-1.59,2.57-3.45,5.54-5.56,8.88l-31.23,48.76H70.83l30.82-46.36c1.7-2.57,1-6.04-1.57-7.74
		c-1.27-0.84-2.77-1.1-4.16-0.82l0-0.01c-4.16,0.82-7.19,1.23-9.87,1.38c-2.7,0.16-5.22,0.07-8.27-0.13
		c-3.08-0.19-5.74,2.15-5.93,5.23c-0.19,3.08,2.15,5.74,5.23,5.93c3.04,0.19,5.65,0.29,8.48,0.18l-29.61,44.55
		c-0.72,0.94-1.15,2.12-1.15,3.4c0,3.09,2.51,5.6,5.6,5.6h61.66v-0.01c1.84,0,3.64-0.91,4.7-2.57l32.91-51.39
		c1.7-2.7,3.57-5.7,5.62-9.01c2.17-3.5,3.95-6.4,5.37-8.74l-0.01-0.01l0.01-0.02c1.86-3.06,3.56-6.12,5.1-9.17
		c1.56-3.1,3.03-6.31,4.39-9.62c1.38-3.36,2.6-6.75,3.67-10.19c1.06-3.4,2.01-6.99,2.85-10.78c0.84-3.77,1.46-7.71,1.88-11.82
		c0.42-4.19,0.63-8.46,0.63-12.8c0-6.49-0.62-12.75-1.86-18.76c-1.24-6.03-3.1-11.74-5.57-17.1c-2.45-5.33-5.37-10.3-8.74-14.9
		c-3.38-4.62-7.2-8.84-11.46-12.69c-4.23-3.81-8.89-7.22-13.97-10.22c-5-2.95-10.4-5.47-16.19-7.55c-1.25-0.45-2.4-0.85-3.46-1.19
		c-1.27-0.41-2.45-0.76-3.53-1.07c-2.97-0.83-6.06,0.9-6.89,3.87C116.67,45.56,118.41,48.64,121.38,49.47z"/>
</g>
</svg>
