<?xml version="1.0" encoding="utf-8"?>
<!-- Generator: Adobe Illustrator 24.1.1, SVG Export Plug-In . SVG Version: 6.00 Build 0)  -->
<svg version="1.1" id="Layer_1" xmlns="http://www.w3.org/2000/svg" xmlns:xlink="http://www.w3.org/1999/xlink" x="0px" y="0px"
	 viewBox="0 0 374.8 191.4" style="enable-background:new 0 0 374.8 191.4;" xml:space="preserve">
<style type="text/css">
	.st0{fill-rule:evenodd;clip-rule:evenodd;fill:#FF69B4;}
	.st1{fill-rule:evenodd;clip-rule:evenodd;fill:#FFFFFF;}
</style>
<g>
	<path class="st0" d="M46.13,83.46c-0.72,2.17-3.06,3.36-5.24,2.64c-2.17-0.72-3.36-3.06-2.64-5.24c0.81-2.43,1.8-4.72,2.95-6.86
		c4.69-8.74,11.92-14.63,20-17.67c8.08-3.04,16.99-3.22,25.05-0.55c1.96,0.65,3.88,1.47,5.75,2.48c9.2,4.95,14.97,12.76,17.62,21.52
		c2.12,6.99,2.24,14.56,0.54,21.69c-1.71,7.15-5.25,13.93-10.45,19.35c-6.65,6.93-15.97,11.61-27.6,11.97
		c-2.28,0.06-4.18-1.74-4.25-4.02c-0.06-2.28,1.74-4.18,4.02-4.25c9.24-0.29,16.62-3.97,21.87-9.44c4.14-4.31,6.96-9.76,8.34-15.53
		c1.38-5.78,1.3-11.85-0.38-17.38c-2.05-6.76-6.51-12.79-13.64-16.62c-1.4-0.75-2.88-1.38-4.42-1.89
		c-6.29-2.08-13.25-1.94-19.54,0.42c-6.29,2.37-11.94,6.98-15.62,13.84C47.58,79.61,46.79,81.46,46.13,83.46L46.13,83.46z"/>
	<path class="st1" d="M48.58,117.77c-6.04-2.72-10.35-6.81-13.14-11.63c-2.72-4.7-4.02-10.11-4.06-15.64
		c-0.04-5.64,1.21-11.39,3.58-16.65c3.07-6.81,8-12.74,14.41-16.44c1.98-1.15,2.65-3.68,1.51-5.66c-1.15-1.98-3.68-2.65-5.66-1.51
		c-7.97,4.61-14.07,11.89-17.81,20.21c-2.85,6.31-4.35,13.26-4.29,20.09c0.05,6.94,1.7,13.78,5.16,19.76
		c3.62,6.25,9.17,11.55,16.9,15.03c2.09,0.94,4.54,0.01,5.48-2.07C51.6,121.16,50.67,118.71,48.58,117.77L48.58,117.77z"/>
	<path class="st0" d="M71.94,41.16c-1.83,1.38-4.42,1.02-5.8-0.81c-1.38-1.83-1.02-4.43,0.81-5.8c2.72-2.05,4.98-5.42,5.93-9.14
		c0.46-1.81,0.6-3.66,0.32-5.42c-0.27-1.72-0.95-3.41-2.14-4.98c-1.46-1.93-3.69-3.68-6.87-5.08l0.02,37.06
		c0,2.28-1.85,4.13-4.13,4.13c-2.28,0-4.13-1.85-4.13-4.13L55.92,4.5c-0.04-0.45,0-0.91,0.11-1.38c0.56-2.22,2.82-3.56,5.04-3
		c8.07,2.06,13.39,5.63,16.6,9.88c2.04,2.7,3.21,5.66,3.7,8.68c0.47,2.97,0.27,5.95-0.45,8.76C79.5,32.98,76.07,38.03,71.94,41.16
		L71.94,41.16z"/>
	<path class="st0" d="M55.96,76.17l0.02,38.78c0.3,7.88-1.83,13.32-5.29,16.51c-2.17,2-4.92,3.17-7.95,3.54
		c-3.23,0.39-6.78-0.11-10.33-1.46c-8.11-3.08-16.05-10.51-20.33-21.87C7.97,100.75,7.21,88.93,9.71,77.9
		c2.42-10.67,7.91-20.59,16.37-28.22c2.75-2.48,5.75-4.68,8.98-6.6c3.27-1.94,6.77-3.59,10.51-4.95c2.15-0.78,3.26-3.15,2.48-5.3
		c-0.78-2.15-3.15-3.26-5.3-2.48c-4.25,1.55-8.22,3.42-11.9,5.6c-3.72,2.2-7.15,4.73-10.31,7.57c-9.77,8.81-16.1,20.26-18.9,32.56
		c-2.86,12.58-2,26.07,2.69,38.51c5.19,13.78,15.03,22.86,25.13,26.7c4.81,1.83,9.7,2.49,14.25,1.95c4.74-0.57,9.09-2.45,12.59-5.68
		c5.16-4.76,8.34-12.36,7.94-22.9l-0.02-38.49c0-2.28-1.85-4.13-4.13-4.13C57.81,72.04,55.96,73.89,55.96,76.17L55.96,76.17z"/>
	<path class="st1" d="M89.94,36.66c0.86,0.24,1.63,0.47,2.32,0.69c0.85,0.27,1.62,0.53,2.31,0.78c3.78,1.37,7.32,3.02,10.6,4.95
		c3.22,1.9,6.22,4.1,8.99,6.6c2.75,2.48,5.2,5.19,7.36,8.14c2.16,2.95,4.04,6.16,5.63,9.62c1.58,3.43,2.76,7.05,3.55,10.86
		c0.79,3.82,1.18,7.91,1.18,12.25c0,3.11-0.14,6-0.4,8.68c-0.28,2.74-0.69,5.34-1.23,7.78c-0.54,2.44-1.19,4.87-1.95,7.31
		c-0.75,2.41-1.57,4.7-2.46,6.87c-0.9,2.2-1.9,4.39-2.99,6.54c-1.1,2.19-2.25,4.27-3.45,6.23l-0.01,0
		c-1.52,2.51-2.85,4.67-3.95,6.44c-1.18,1.91-2.55,4.1-4.12,6.58L88.18,183.1h-35.7l22.84-34.36c1.26-1.91,0.74-4.48-1.17-5.74
		c-0.94-0.62-2.05-0.81-3.08-0.61l0-0.01c-3.08,0.6-5.33,0.91-7.31,1.02c-2,0.12-3.87,0.05-6.13-0.09
		c-2.28-0.14-4.25,1.59-4.39,3.87c-0.14,2.28,1.59,4.25,3.87,4.39c2.25,0.14,4.19,0.22,6.28,0.13l-21.94,33.01
		c-0.53,0.7-0.85,1.57-0.85,2.52c0,2.29,1.86,4.15,4.15,4.15h45.69v-0.01c1.36,0,2.7-0.67,3.49-1.9l24.38-38.08
		c1.26-2,2.65-4.22,4.17-6.68c1.6-2.59,2.92-4.74,3.98-6.48l-0.01,0l0.01-0.01c1.38-2.27,2.64-4.54,3.78-6.8
		c1.16-2.29,2.24-4.67,3.25-7.13c1.02-2.49,1.93-5,2.72-7.55c0.78-2.52,1.49-5.18,2.11-7.99c0.62-2.79,1.09-5.71,1.39-8.75
		c0.31-3.11,0.47-6.27,0.47-9.49c0-4.81-0.46-9.45-1.38-13.9c-0.92-4.47-2.3-8.7-4.13-12.67c-1.82-3.95-3.98-7.63-6.48-11.04
		c-2.5-3.42-5.33-6.55-8.49-9.4c-3.13-2.83-6.59-5.35-10.35-7.57c-3.71-2.18-7.71-4.05-11.99-5.6c-0.92-0.33-1.78-0.63-2.57-0.88
		c-0.94-0.3-1.81-0.57-2.61-0.79c-2.2-0.62-4.49,0.67-5.11,2.87C86.45,33.76,87.74,36.04,89.94,36.66z"/>
	<path class="st1" d="M152.92,117.52v6.47h-7.85V58.78h8.11v30.45h0.26c1.38-2.01,3.31-3.72,5.78-5.13c2.47-1.41,5.41-2.11,8.8-2.11
		c3.05,0,5.82,0.55,8.32,1.64c2.5,1.09,4.66,2.62,6.47,4.57c1.81,1.96,3.21,4.24,4.18,6.86c0.98,2.62,1.47,5.42,1.47,8.41
		c0,2.99-0.49,5.81-1.47,8.45c-0.98,2.65-2.36,4.95-4.14,6.9c-1.78,1.96-3.94,3.49-6.47,4.62c-2.53,1.12-5.38,1.68-8.54,1.68
		c-2.93,0-5.72-0.65-8.37-1.94c-2.64-1.29-4.77-3.18-6.38-5.65H152.92L152.92,117.52z M180.09,103.46c0-1.9-0.29-3.74-0.86-5.52
		c-0.58-1.78-1.44-3.36-2.59-4.74c-1.15-1.38-2.57-2.47-4.27-3.28c-1.7-0.81-3.67-1.21-5.91-1.21c-2.07,0-3.95,0.4-5.65,1.21
		c-1.7,0.81-3.15,1.9-4.36,3.28c-1.21,1.38-2.14,2.96-2.8,4.74c-0.66,1.78-0.99,3.65-0.99,5.61c0,1.96,0.33,3.82,0.99,5.61
		c0.66,1.78,1.6,3.35,2.8,4.7c1.21,1.35,2.66,2.43,4.36,3.23c1.7,0.81,3.58,1.21,5.65,1.21c2.24,0,4.21-0.42,5.91-1.25
		c1.7-0.83,3.12-1.94,4.27-3.32c1.15-1.38,2.01-2.96,2.59-4.74C179.8,107.2,180.09,105.36,180.09,103.46L180.09,103.46z
		 M224.43,99.93c-0.06-1.61-0.33-3.12-0.82-4.53c-0.49-1.41-1.21-2.63-2.16-3.67c-0.95-1.04-2.13-1.85-3.54-2.46
		c-1.41-0.6-3.06-0.91-4.96-0.91c-1.72,0-3.35,0.3-4.87,0.91c-1.52,0.6-2.85,1.42-3.97,2.46c-1.12,1.03-2.04,2.26-2.76,3.67
		c-0.72,1.41-1.14,2.92-1.25,4.53H224.43L224.43,99.93z M232.63,103.2c0,0.46,0,0.92,0,1.38c0,0.46-0.03,0.92-0.09,1.38h-32.43
		c0.06,1.73,0.45,3.35,1.16,4.87c0.72,1.52,1.68,2.85,2.89,3.97c1.21,1.12,2.6,2,4.18,2.63c1.58,0.63,3.26,0.95,5.05,0.95
		c2.76,0,5.15-0.6,7.16-1.81c2.01-1.21,3.59-2.67,4.74-4.4l5.69,4.57c-2.18,2.88-4.76,4.99-7.72,6.34
		c-2.96,1.35-6.25,2.03-9.88,2.03c-3.11,0-5.98-0.52-8.63-1.55c-2.64-1.04-4.92-2.49-6.81-4.36c-1.9-1.87-3.39-4.13-4.49-6.77
		c-1.09-2.64-1.64-5.58-1.64-8.8c0-3.16,0.53-6.08,1.6-8.76c1.06-2.67,2.55-4.96,4.44-6.86c1.9-1.9,4.14-3.38,6.73-4.44
		c2.59-1.06,5.38-1.6,8.37-1.6c2.99,0,5.71,0.49,8.15,1.47c2.44,0.98,4.51,2.39,6.21,4.23c1.7,1.84,3.01,4.07,3.92,6.69
		C232.17,96.98,232.63,99.93,232.63,103.2L232.63,103.2z M263.6,97.51c0-3.05-0.92-5.31-2.76-6.77c-1.84-1.47-4.28-2.2-7.33-2.2
		c-2.3,0-4.47,0.45-6.51,1.34c-2.04,0.89-3.75,2.03-5.13,3.41l-4.31-5.18c2.01-1.9,4.47-3.39,7.38-4.49
		c2.9-1.09,6.02-1.64,9.36-1.64c2.93,0,5.48,0.42,7.63,1.25c2.16,0.83,3.92,1.97,5.3,3.41c1.38,1.44,2.42,3.13,3.11,5.09
		c0.69,1.96,1.04,4.05,1.04,6.3v17.86c0,1.38,0.04,2.83,0.13,4.36c0.09,1.52,0.24,2.77,0.47,3.75h-7.33
		c-0.46-1.96-0.69-3.91-0.69-5.87h-0.26c-1.5,2.19-3.38,3.88-5.65,5.09c-2.27,1.21-4.96,1.81-8.06,1.81c-1.61,0-3.29-0.22-5.05-0.65
		c-1.75-0.43-3.35-1.14-4.79-2.11c-1.44-0.98-2.63-2.27-3.58-3.88c-0.95-1.61-1.42-3.59-1.42-5.95c0-3.11,0.83-5.56,2.5-7.38
		c1.67-1.81,3.85-3.19,6.56-4.14c2.7-0.95,5.75-1.57,9.14-1.85c3.39-0.29,6.81-0.43,10.27-0.43V97.51L263.6,97.51z M261.61,104.5
		c-2.01,0-4.1,0.09-6.25,0.26c-2.16,0.17-4.11,0.52-5.87,1.04c-1.75,0.52-3.21,1.29-4.36,2.33c-1.15,1.04-1.73,2.42-1.73,4.14
		c0,1.21,0.24,2.21,0.73,3.02c0.49,0.81,1.14,1.47,1.94,1.98c0.8,0.52,1.7,0.88,2.67,1.08c0.98,0.2,1.98,0.3,3.02,0.3
		c3.79,0,6.71-1.14,8.76-3.41c2.04-2.27,3.06-5.13,3.06-8.58v-2.16H261.61L261.61,104.5z M298.8,89.75h-10.87v21.31
		c0,2.47,0.46,4.24,1.38,5.3s2.39,1.6,4.4,1.6c0.75,0,1.55-0.09,2.42-0.26c0.86-0.17,1.64-0.43,2.33-0.78l0.26,6.64
		c-0.98,0.35-2.06,0.62-3.23,0.82c-1.18,0.2-2.4,0.3-3.67,0.3c-3.85,0-6.8-1.06-8.84-3.19c-2.04-2.13-3.06-5.32-3.06-9.58V89.75
		h-7.85v-6.64h7.85V71.37h8.02v11.73h10.87V89.75L298.8,89.75z M323.99,93.46l5.61-4.74c-1.49-2.18-3.61-3.85-6.34-5
		c-2.73-1.15-5.56-1.73-8.5-1.73c-1.96,0-3.85,0.24-5.69,0.73c-1.84,0.49-3.48,1.24-4.92,2.24c-1.44,1.01-2.6,2.3-3.49,3.88
		c-0.89,1.58-1.34,3.46-1.34,5.65c0,1.9,0.36,3.49,1.08,4.79c0.72,1.29,1.65,2.37,2.8,3.23c1.15,0.86,2.43,1.54,3.84,2.03
		c1.41,0.49,2.8,0.91,4.18,1.25c3.51,0.81,6.17,1.67,7.98,2.59c1.81,0.92,2.72,2.33,2.72,4.23c0,1.15-0.23,2.1-0.69,2.85
		c-0.46,0.75-1.08,1.35-1.86,1.81c-0.78,0.46-1.64,0.79-2.59,0.99c-0.95,0.2-1.94,0.3-2.98,0.3c-2.3,0-4.41-0.55-6.34-1.64
		c-1.93-1.09-3.44-2.44-4.53-4.05l-5.78,4.92c1.96,2.47,4.41,4.31,7.38,5.52c2.96,1.21,6,1.81,9.1,1.81c2.07,0,4.08-0.23,6.04-0.69
		c1.96-0.46,3.69-1.22,5.22-2.29c1.52-1.06,2.75-2.43,3.67-4.1c0.92-1.67,1.38-3.71,1.38-6.12c0-1.78-0.35-3.33-1.04-4.66
		c-0.69-1.32-1.65-2.46-2.89-3.41c-1.24-0.95-2.69-1.74-4.36-2.37c-1.67-0.63-3.48-1.18-5.43-1.64c-3.11-0.69-5.43-1.45-6.99-2.29
		c-1.55-0.83-2.33-2.11-2.33-3.84c0-0.98,0.22-1.8,0.65-2.46c0.43-0.66,1.01-1.21,1.73-1.64c0.72-0.43,1.54-0.75,2.46-0.95
		c0.92-0.2,1.84-0.3,2.76-0.3c2.07,0,3.94,0.47,5.61,1.42C321.77,90.74,323.07,91.96,323.99,93.46L323.99,93.46z M359.44,99.32
		l-0.09-0.09c-0.86,0.52-2.04,0.92-3.54,1.21c-0.69,0.11-1.39,0.22-2.11,0.3c-0.72,0.09-1.39,0.13-2.03,0.13
		c-2.7,0-5.2-0.47-7.5-1.42c-2.3-0.95-4.31-2.27-6.04-3.97c-1.72-1.7-3.08-3.72-4.05-6.08c-0.98-2.36-1.47-4.92-1.47-7.68
		c0-3.05,0.53-5.82,1.6-8.32c1.06-2.5,2.54-4.64,4.44-6.43c1.9-1.78,4.14-3.16,6.73-4.14c2.59-0.98,5.38-1.47,8.37-1.47
		c2.99,0,5.78,0.5,8.37,1.51c2.59,1.01,4.82,2.4,6.69,4.18c1.87,1.78,3.34,3.91,4.4,6.38c1.06,2.47,1.6,5.15,1.6,8.02
		c0,3.34-0.55,6.35-1.64,9.06c-1.09,2.7-2.5,5.46-4.23,8.28l-15.96,25.19h-9.92L359.44,99.32L359.44,99.32z M366.43,81.38
		c0-1.78-0.3-3.46-0.91-5.05c-0.6-1.58-1.47-2.96-2.59-4.14c-1.12-1.18-2.46-2.11-4.01-2.8c-1.55-0.69-3.28-1.04-5.18-1.04
		c-1.9,0-3.62,0.33-5.18,0.99c-1.55,0.66-2.89,1.57-4.01,2.72c-1.12,1.15-1.98,2.53-2.59,4.14c-0.6,1.61-0.91,3.36-0.91,5.26
		c0,1.84,0.3,3.54,0.91,5.09c0.6,1.55,1.45,2.9,2.54,4.05c1.09,1.15,2.42,2.04,3.97,2.67c1.55,0.63,3.28,0.95,5.18,0.95
		c1.9,0,3.64-0.32,5.22-0.95c1.58-0.63,2.93-1.52,4.05-2.67c1.12-1.15,1.98-2.5,2.59-4.05C366.13,85,366.43,83.28,366.43,81.38z"/>
</g>
</svg>
